# xmcd
#
# Track frame offsets: 
#        150
#        15270
#        33685
#        54492
#        69820
#        85700
#        98552
#        114632
#        128995
#        145880
#        163452
#        176060
#        187955
#
# Disc length: 2786 seconds
#
# Revision: 0
# Processed by: cddbd v1.5.2PL0 Copyright (c) Steve Scherf et al.
# Submitted via: ExactAudioCopy v0.95b4
#
DISCID=a90ae00d
DTITLE=John Brack - Jumpin' Jack Brack
DYEAR=2006
DGENRE=
TTITLE0=Not At This Address
TTITLE1=A Fool For Fallin'
TTITLE2=Roseanne
TTITLE3=The Closer You Get To The Bottom
TTITLE4=A Good Day For The Blues
TTITLE5=You Can't Just Leave Me
TTITLE6=I Need A Little Taste Of Yozu
TTITLE7=I'm Still In Love With You
TTITLE8=Be Bop A Lula
TTITLE9=Kansas City
TTITLE10=Just Another Pain
TTITLE11=I'm Gonna Cheer You Up
TTITLE12=Roseanne (Schwyzerdütsch)
EXTD=
EXTT0=
EXTT1=
EXTT2=
EXTT3=
EXTT4=
EXTT5=
EXTT6=
EXTT7=
EXTT8=
EXTT9=
EXTT10=
EXTT11=
EXTT12=
PLAYORDER=
